<?xml version="1.0" encoding="utf-8"?>
<!DOCTYPE svg PUBLIC "-//W3C//DTD SVG 1.1//EN" "http://www.w3.org/Graphics/SVG/1.1/DTD/svg11.dtd">
<svg version="1.1" id="wp-ignitor" xmlns="http://www.w3.org/2000/svg" xmlns:xlink="http://www.w3.org/1999/xlink" x="0px"
	 y="0px" width="255.118px" height="255.118px" viewBox="170.441 293.441 255.118 255.118"
	 enable-background="new 170.441 293.441 255.118 255.118" xml:space="preserve">
<linearGradient id="paint-color" gradientUnits="userSpaceOnUse" x1="298.387" y1="313.4878" x2="297.4146" y2="512.6248" gradientTransform="matrix(1 0 0 -1 -0.02 840.9844)">
	<stop  offset="0" style="stop-color:#FFB545"/>
	<stop  offset="1" style="stop-color:#E94B23"/>
</linearGradient>
<path fill="url(#paint-color)" d="M327.49,351.34c17.4,21.28,40.66,18.69,47.05,39.63c1.181-26.45-10.029-31.35-16.939-36.45
	c-11.53-10.62-23.25-18.75-14.3-40.08C332.77,321.89,319.43,339.98,327.49,351.34z M236.36,465.929
	c0,22.971,13.71,42.83,33.601,52.24L241.52,442.3C238.22,449.519,236.36,457.509,236.36,465.929z M336.21,463
	c0-7.18-2.65-12.139-4.921-16.01c-3.02-4.789-5.85-8.83-5.85-13.609c0-5.34,4.15-10.311,10.01-10.311
	c0.261,0,0.511,0.029,0.771,0.051c-10.601-9.471-24.73-15.241-40.25-15.241c-20.82,0-39.15,10.4-49.8,26.161
	c1.399,0.049,2.71,0.07,3.83,0.07c6.239,0,15.89-0.73,15.89-0.73c3.21-0.189,3.59,4.41,0.38,4.779c0,0-3.229,0.371-6.819,0.551
	l21.699,62.879l13.051-38.1l-9.29-24.779c-3.21-0.18-6.25-0.551-6.25-0.551c-3.21-0.189-2.841-4.969,0.38-4.779
	c0,0,9.84,0.73,15.699,0.73c6.23,0,15.891-0.73,15.891-0.73c3.21-0.189,3.59,4.41,0.37,4.779c0,0-3.23,0.371-6.82,0.551l21.55,62.4
	l5.94-19.342C334.25,473.73,336.21,467.97,336.21,463z M297.02,471.009l-17.89,50.611c5.34,1.529,10.99,2.359,16.84,2.359
	c6.939,0,13.6-1.16,19.79-3.289c-0.15-0.25-0.3-0.512-0.42-0.801L297.02,471.009z M348.27,438.08c0.26,1.85,0.4,3.83,0.4,5.971
	c0,5.891-1.131,12.51-4.53,20.789l-18.21,51.271c17.729-10.07,29.64-28.762,29.64-50.182
	C355.57,455.83,352.93,446.349,348.27,438.08z M242.28,421.73c-13.93-3.92-16.649-16.51-17.779-30.33
	c-13.101,19.38-26.15,39.5-26.07,66.621c0.14,42.51,24.06,62.129,66.68,72.84c2.9,0.859,7.32,1.568,12.341,2.119
	c-29.421-8.109-51.021-35.061-51.021-67.051C226.43,449.14,232.38,433.74,242.28,421.73z M329.97,532.611
	c18.939-4.432,33.569-16.271,44.85-30.5c10.76-13.561,20.851-29.711,22.431-47.842c2.01-23.189-5.66-37.859-16.98-51.139
	c7,14.01,2,39.331-12.73,43.629c2.66-8.709,0.521-19.439-1.819-28.139c-10.721-24.73-38.98-45.11-60.61-64.27
	c-7.68-6.82-16.27-14.52-17.58-23.93c-1.489-10.72,2.28-16.63,6.681-22.99c-34.66,11.97-59.13,34.68-54.561,73.66
	c1.42,12.07,7.86,22.23,9.13,33.76c12.4-11.46,28.971-18.46,47.19-18.46c38.399,0,69.54,31.131,69.54,69.539
	c0,34.58-25.24,63.262-58.3,68.641l0.779-0.01c8.851-0.08,16.15-0.82,22.09-2.09L329.97,532.611z"/>
</svg>
