<?xml version="1.0" encoding="utf-8"?>
<!-- Generator: Adobe Illustrator 15.0.0, SVG Export Plug-In . SVG Version: 6.00 Build 0)  -->
<!DOCTYPE svg PUBLIC "-//W3C//DTD SVG 1.1//EN" "http://www.w3.org/Graphics/SVG/1.1/DTD/svg11.dtd">
<svg version="1.1" id="レイヤー_x5F_1_x5F_1" xmlns="http://www.w3.org/2000/svg" xmlns:xlink="http://www.w3.org/1999/xlink"
	 x="0px" y="0px" width="595.28px" height="841.89px" viewBox="0 0 595.28 841.89" enable-background="new 0 0 595.28 841.89"
	 xml:space="preserve">
<linearGradient id="SVGID_1_" gradientUnits="userSpaceOnUse" x1="298.3667" y1="527.4976" x2="297.3943" y2="328.3598">
	<stop  offset="0" style="stop-color:#FFB545"/>
	<stop  offset="1" style="stop-color:#E94B23"/>
</linearGradient>
<path fill-rule="evenodd" clip-rule="evenodd" fill="url(#SVGID_1_)" d="M327.49,351.34c17.4,21.28,40.66,18.69,47.05,39.63
	c1.18-26.45-10.03-31.35-16.94-36.45c-11.53-10.62-23.25-18.75-14.3-40.08C332.77,321.89,319.43,339.98,327.49,351.34z
	 M236.36,465.93c0,22.97,13.71,42.83,33.6,52.24l-28.44-75.87C238.22,449.52,236.36,457.51,236.36,465.93z M336.21,463
	c0-7.18-2.65-12.14-4.92-16.01c-3.02-4.79-5.85-8.83-5.85-13.61c0-5.34,4.15-10.31,10.01-10.31c0.26,0,0.51,0.03,0.77,0.05
	c-10.6-9.47-24.73-15.24-40.25-15.24c-20.82,0-39.15,10.4-49.8,26.16c1.4,0.05,2.71,0.07,3.83,0.07c6.24,0,15.89-0.73,15.89-0.73
	c3.21-0.19,3.59,4.41,0.38,4.78c0,0-3.23,0.37-6.82,0.55l21.7,62.88l13.05-38.1l-9.29-24.78c-3.21-0.18-6.25-0.55-6.25-0.55
	c-3.21-0.19-2.84-4.97,0.38-4.78c0,0,9.84,0.73,15.7,0.73c6.23,0,15.89-0.73,15.89-0.73c3.21-0.19,3.59,4.41,0.37,4.78
	c0,0-3.23,0.37-6.82,0.55l21.55,62.4l5.94-19.34C334.25,473.73,336.21,467.97,336.21,463z M297.02,471.01l-17.89,50.61
	c5.34,1.53,10.99,2.36,16.84,2.36c6.94,0,13.6-1.16,19.79-3.29c-0.15-0.25-0.3-0.51-0.42-0.8L297.02,471.01z M348.27,438.08
	c0.26,1.85,0.4,3.83,0.4,5.97c0,5.89-1.13,12.51-4.53,20.79l-18.21,51.27c17.73-10.07,29.64-28.76,29.64-50.18
	C355.57,455.83,352.93,446.35,348.27,438.08z M242.28,421.73c-13.93-3.92-16.65-16.51-17.78-30.33
	c-13.1,19.38-26.15,39.5-26.07,66.62c0.14,42.51,24.06,62.13,66.68,72.84c2.9,0.86,7.32,1.57,12.34,2.12
	c-29.42-8.11-51.02-35.06-51.02-67.05C226.43,449.14,232.38,433.74,242.28,421.73z M329.97,532.61
	c18.94-4.43,33.57-16.27,44.85-30.5c10.76-13.56,20.85-29.71,22.43-47.84c2.01-23.19-5.66-37.86-16.98-51.14
	c7,14.01,2,39.33-12.73,43.63c2.66-8.71,0.52-19.44-1.82-28.14c-10.72-24.73-38.98-45.11-60.61-64.27
	c-7.68-6.82-16.27-14.52-17.58-23.93c-1.49-10.72,2.28-16.63,6.68-22.99c-34.66,11.97-59.13,34.68-54.56,73.66
	c1.42,12.07,7.86,22.23,9.13,33.76c12.4-11.46,28.97-18.46,47.19-18.46c38.4,0,69.54,31.13,69.54,69.54
	c0,34.58-25.24,63.26-58.3,68.64l0.78-0.01c8.85-0.08,16.15-0.82,22.09-2.09L329.97,532.61z"/>
</svg>
